<svg width="32" height="32" viewBox="0 0 32 32" fill="none" xmlns="http://www.w3.org/2000/svg">
<path d="M16 31C24.2843 31 31 24.2843 31 16C31 7.71573 24.2843 1 16 1C7.71573 1 1 7.71573 1 16C1 24.2843 7.71573 31 16 31Z" fill="#74538E"/>
<path d="M18.85 9.05C19.85 9.4 20.7 10 21.3 10.9C21.8 11.6 22.15 12.4 22.35 13.25C22.55 14.1 22.65 14.9 22.65 15.65C22.65 17.6 22.25 19.2 21.5 20.55C20.45 22.35 18.85 23.25 16.65 23.25H10.35V8.75H16.6C17.5 8.75 18.25 8.85 18.85 9.05ZM13.3 11.25V20.7H16.1C17.55 20.7 18.55 20 19.1 18.6C19.4 17.85 19.55 16.9 19.55 15.85C19.55 14.35 19.3 13.25 18.85 12.45C18.4 11.65 17.45 11.25 16.1 11.25H13.3Z" fill="white"/>
</svg>
