<svg width="50" height="50" viewBox="0 0 50 50" fill="none" xmlns="http://www.w3.org/2000/svg">
<circle cx="25" cy="25" r="24" fill="white"/>
<circle cx="25" cy="25" r="24" fill="white"/>
<circle cx="25" cy="25" r="24" fill="white"/>
<circle cx="25" cy="25" r="24" fill="white"/>
<circle cx="25" cy="25" r="24" stroke="#74538E" stroke-width="2"/>
<path fill-rule="evenodd" clip-rule="evenodd" d="M22.984 14.0507C24.2966 12.7379 26.0769 12.0002 27.9333 12H31.5333C31.7985 12 32.0529 12.1054 32.2404 12.2929C32.428 12.4804 32.5333 12.7348 32.5333 13V17.8C32.5333 18.0652 32.428 18.3196 32.2404 18.5071C32.0529 18.6946 31.7985 18.8 31.5333 18.8H27.9333C27.9071 18.8 27.8811 18.8052 27.8568 18.8152C27.8325 18.8253 27.8105 18.84 27.7919 18.8586C27.7733 18.8772 27.7586 18.8992 27.7486 18.9235C27.7385 18.9477 27.7333 18.9737 27.7333 19V21.6H31.5333C31.6854 21.5999 31.8354 21.6345 31.9721 21.7011C32.1087 21.7677 32.2284 21.8646 32.322 21.9844C32.4155 22.1042 32.4806 22.2438 32.5121 22.3925C32.5437 22.5412 32.5409 22.6952 32.504 22.8427L31.304 27.6427C31.2499 27.8591 31.1249 28.0512 30.949 28.1884C30.7731 28.3256 30.5564 28.4001 30.3333 28.4H27.7333V37C27.7333 37.2652 27.628 37.5196 27.4404 37.7071C27.2529 37.8946 26.9986 38 26.7333 38H21.9333C21.6681 38 21.4138 37.8946 21.2262 37.7071C21.0387 37.5196 20.9333 37.2652 20.9333 37V28.4H18.3333C18.0681 28.4 17.8138 28.2946 17.6262 28.1071C17.4387 27.9196 17.3333 27.6652 17.3333 27.4V22.6C17.3333 22.4687 17.3592 22.3386 17.4095 22.2173C17.4597 22.096 17.5334 21.9858 17.6262 21.8929C17.7191 21.8 17.8293 21.7264 17.9507 21.6761C18.072 21.6259 18.202 21.6 18.3333 21.6H20.9333V19C20.9336 17.1436 21.6712 15.3633 22.984 14.0507ZM27.9333 14C26.6073 14 25.3355 14.5268 24.3978 15.4645C23.4601 16.4021 22.9333 17.6739 22.9333 19V22.6C22.9333 22.8652 22.828 23.1196 22.6404 23.3071C22.4529 23.4946 22.1985 23.6 21.9333 23.6H19.3333V26.4H21.9333C22.1985 26.4 22.4529 26.5054 22.6404 26.6929C22.828 26.8804 22.9333 27.1348 22.9333 27.4V36H25.7333V27.4C25.7333 27.1348 25.8387 26.8804 26.0262 26.6929C26.2138 26.5054 26.4681 26.4 26.7333 26.4H29.552L30.252 23.6H26.7333C26.4681 23.6 26.2138 23.4946 26.0262 23.3071C25.8387 23.1196 25.7333 22.8652 25.7333 22.6V19C25.7333 18.4165 25.9651 17.8569 26.3777 17.4444C26.7903 17.0318 27.3499 16.8 27.9333 16.8H30.5333V14H27.9333Z" fill="#74538E"/>
</svg>
