<svg width="16" height="16" viewBox="0 0 16 16" fill="none" xmlns="http://www.w3.org/2000/svg">
<path fill-rule="evenodd" clip-rule="evenodd" d="M6.992 2.52533C7.64829 1.86893 8.53845 1.50011 9.46667 1.5H11.2667C11.3993 1.5 11.5265 1.55268 11.6202 1.64645C11.714 1.74021 11.7667 1.86739 11.7667 2V4.4C11.7667 4.53261 11.714 4.65979 11.6202 4.75355C11.5265 4.84732 11.3993 4.9 11.2667 4.9H9.46667C9.45353 4.9 9.44053 4.90259 9.4284 4.90761C9.41627 4.91264 9.40524 4.92 9.39596 4.92929C9.38667 4.93858 9.3793 4.9496 9.37428 4.96173C9.36925 4.97386 9.36667 4.98687 9.36667 5V6.3H11.2667C11.3427 6.29996 11.4177 6.31725 11.486 6.35055C11.5544 6.38386 11.6142 6.43231 11.661 6.49221C11.7078 6.55211 11.7403 6.6219 11.7561 6.69626C11.7718 6.77062 11.7704 6.84759 11.752 6.92133L11.152 9.32133C11.1249 9.42954 11.0625 9.52559 10.9745 9.59421C10.8866 9.66282 10.7782 9.70006 10.6667 9.7H9.36667V14C9.36667 14.1326 9.31399 14.2598 9.22022 14.3536C9.12645 14.4473 8.99927 14.5 8.86667 14.5H6.46667C6.33406 14.5 6.20688 14.4473 6.11311 14.3536C6.01934 14.2598 5.96667 14.1326 5.96667 14V9.7H4.66667C4.53406 9.7 4.40688 9.64732 4.31311 9.55355C4.21934 9.45979 4.16667 9.33261 4.16667 9.2V6.8C4.16667 6.73434 4.1796 6.66932 4.20473 6.60866C4.22985 6.548 4.26668 6.49288 4.31311 6.44645C4.35954 6.40002 4.41466 6.36319 4.47532 6.33806C4.53599 6.31293 4.60101 6.3 4.66667 6.3H5.96667V5C5.96678 4.07178 6.3356 3.18163 6.992 2.52533ZM9.46667 2.5C8.80362 2.5 8.16774 2.76339 7.6989 3.23223C7.23006 3.70107 6.96667 4.33696 6.96667 5V6.8C6.96667 6.93261 6.91399 7.05979 6.82022 7.15355C6.72645 7.24732 6.59927 7.3 6.46667 7.3H5.16667V8.7H6.46667C6.59927 8.7 6.72645 8.75268 6.82022 8.84645C6.91399 8.94021 6.96667 9.06739 6.96667 9.2V13.5H8.36667V9.2C8.36667 9.06739 8.41934 8.94021 8.51311 8.84645C8.60688 8.75268 8.73406 8.7 8.86667 8.7H10.276L10.626 7.3H8.86667C8.73406 7.3 8.60688 7.24732 8.51311 7.15355C8.41934 7.05979 8.36667 6.93261 8.36667 6.8V5C8.36667 4.70826 8.48256 4.42847 8.68885 4.22218C8.89514 4.01589 9.17493 3.9 9.46667 3.9H10.7667V2.5H9.46667Z" fill="#FFFFFF"/>
</svg>
