<svg width="50" height="50" viewBox="0 0 50 50" fill="none" xmlns="http://www.w3.org/2000/svg">
<circle cx="25" cy="25" r="24" fill="white" stroke="#74538E" stroke-width="2"/>
<path d="M30.356 11.6665H19.596C17.4935 11.669 15.4779 12.5054 13.9914 13.9922C12.5048 15.4789 11.6688 17.4947 11.6667 19.5972L11.6667 30.3572C11.6691 32.4596 12.5055 34.4753 13.9923 35.9618C15.4791 37.4483 17.4949 38.2844 19.5973 38.2865H30.3573C32.4598 38.284 34.4754 37.4476 35.962 35.9609C37.4485 34.4741 38.2845 32.4583 38.2867 30.3558V19.5958C38.2842 17.4934 37.4478 15.4778 35.961 13.9912C34.4742 12.5047 32.4585 11.6686 30.356 11.6665ZM35.6093 30.3558C35.6093 31.0457 35.4734 31.7288 35.2094 32.3662C34.9454 33.0036 34.5585 33.5827 34.0707 34.0705C33.5828 34.5583 33.0037 34.9453 32.3664 35.2093C31.729 35.4733 31.0459 35.6092 30.356 35.6092H19.596C18.203 35.6088 16.8671 35.0552 15.8822 34.07C14.8973 33.0849 14.344 31.7489 14.344 30.3558V19.5958C14.3444 18.2028 14.898 16.8669 15.8831 15.882C16.8683 14.8971 18.2043 14.3438 19.5973 14.3438H30.3573C31.7504 14.3442 33.0862 14.8978 34.0711 15.883C35.056 16.8681 35.6093 18.2041 35.6093 19.5972V30.3558Z" fill="#74538E"/>
<path d="M24.976 18.0918C23.1512 18.0946 21.402 18.8208 20.1119 20.1113C18.8217 21.4017 18.0958 23.151 18.0933 24.9758C18.0954 26.801 18.8214 28.5509 20.1119 29.8417C21.4024 31.1324 23.1521 31.8587 24.9773 31.8611C26.8028 31.859 28.5529 31.1329 29.8437 29.8421C31.1345 28.5513 31.8605 26.8013 31.8627 24.9758C31.8598 23.1506 31.1332 21.401 29.8422 20.1107C28.5512 18.8205 26.8012 18.0949 24.976 18.0931V18.0918ZM24.976 29.1838C23.8603 29.1838 22.7903 28.7406 22.0014 27.9517C21.2125 27.1628 20.7693 26.0928 20.7693 24.9771C20.7693 23.8615 21.2125 22.7915 22.0014 22.0026C22.7903 21.2137 23.8603 20.7705 24.976 20.7705C26.0917 20.7705 27.1617 21.2137 27.9506 22.0026C28.7395 22.7915 29.1827 23.8615 29.1827 24.9771C29.1827 26.0928 28.7395 27.1628 27.9506 27.9517C27.1617 28.7406 26.0917 29.1838 24.976 29.1838Z" fill="#74538E"/>
<path d="M31.8747 19.7933C32.7856 19.7933 33.524 19.0549 33.524 18.144C33.524 17.2331 32.7856 16.4946 31.8747 16.4946C30.9638 16.4946 30.2253 17.2331 30.2253 18.144C30.2253 19.0549 30.9638 19.7933 31.8747 19.7933Z" fill="#74538E"/>
</svg>
