<svg width="16" height="16" viewBox="0 0 16 16" fill="none" xmlns="http://www.w3.org/2000/svg">
<path d="M8.00067 6.00004C7.47023 6.00004 6.96153 6.21075 6.58645 6.58583C6.21138 6.9609 6.00067 7.46961 6.00067 8.00004C6.00067 8.53047 6.21138 9.03918 6.58645 9.41426C6.96153 9.78933 7.47023 10 8.00067 10C8.5311 10 9.03981 9.78933 9.41488 9.41426C9.78995 9.03918 10.0007 8.53047 10.0007 8.00004C10.0007 7.46961 9.78995 6.9609 9.41488 6.58583C9.03981 6.21075 8.5311 6.00004 8.00067 6.00004ZM8.00067 4.66671C8.88472 4.66671 9.73257 5.0179 10.3577 5.64302C10.9828 6.26814 11.334 7.11599 11.334 8.00004C11.334 8.8841 10.9828 9.73194 10.3577 10.3571C9.73257 10.9822 8.88472 11.3334 8.00067 11.3334C7.11661 11.3334 6.26877 10.9822 5.64365 10.3571C5.01852 9.73194 4.66733 8.8841 4.66733 8.00004C4.66733 7.11599 5.01852 6.26814 5.64365 5.64302C6.26877 5.0179 7.11661 4.66671 8.00067 4.66671ZM12.334 4.50004C12.334 4.72105 12.2462 4.93302 12.0899 5.0893C11.9336 5.24558 11.7217 5.33337 11.5007 5.33337C11.2797 5.33337 11.0677 5.24558 10.9114 5.0893C10.7551 4.93302 10.6673 4.72105 10.6673 4.50004C10.6673 4.27903 10.7551 4.06707 10.9114 3.91079C11.0677 3.7545 11.2797 3.66671 11.5007 3.66671C11.7217 3.66671 11.9336 3.7545 12.0899 3.91079C12.2462 4.06707 12.334 4.27903 12.334 4.50004ZM8.00067 2.66671C6.35133 2.66671 6.082 2.67137 5.31467 2.70537C4.792 2.73004 4.44133 2.80004 4.116 2.92671C3.84374 3.02667 3.59761 3.18688 3.396 3.39537C3.18734 3.59697 3.0269 3.8431 2.92667 4.11537C2.8 4.44204 2.73 4.79204 2.706 5.31404C2.67133 6.05004 2.66667 6.30737 2.66667 8.00004C2.66667 9.65004 2.67133 9.91871 2.70533 10.686C2.73 11.208 2.8 11.5594 2.926 11.884C3.03933 12.174 3.17267 12.3827 3.394 12.604C3.61867 12.828 3.82733 12.962 4.114 13.0727C4.44333 13.2 4.794 13.2707 5.314 13.2947C6.05 13.3294 6.30733 13.3334 8 13.3334C9.65 13.3334 9.91867 13.3287 10.686 13.2947C11.2073 13.27 11.558 13.2 11.884 13.074C12.156 12.9736 12.402 12.8134 12.604 12.6054C12.8287 12.3814 12.9627 12.1727 13.0733 11.8854C13.2 11.5574 13.2707 11.2067 13.2947 10.6854C13.3293 9.95004 13.3333 9.69204 13.3333 8.00004C13.3333 6.35071 13.3287 6.08137 13.2947 5.31404C13.27 4.79271 13.1993 4.44071 13.0733 4.11537C12.9728 3.84339 12.8127 3.59736 12.6047 3.39537C12.4032 3.1866 12.157 3.02615 11.8847 2.92604C11.558 2.79937 11.2073 2.72937 10.686 2.70537C9.95067 2.67071 9.69333 2.66671 8 2.66671M8 1.33337C9.81133 1.33337 10.0373 1.34004 10.7487 1.37337C11.458 1.40671 11.942 1.51804 12.3667 1.68337C12.8067 1.85271 13.1773 2.08204 13.548 2.45204C13.887 2.7853 14.1493 3.18843 14.3167 3.63337C14.4813 4.05804 14.5933 4.54204 14.6267 5.25204C14.658 5.96271 14.6667 6.18871 14.6667 8.00004C14.6667 9.81137 14.66 10.0374 14.6267 10.748C14.5933 11.458 14.4813 11.9414 14.3167 12.3667C14.1498 12.8119 13.8874 13.2151 13.548 13.548C13.2146 13.8869 12.8115 14.1492 12.3667 14.3167C11.942 14.4814 11.458 14.5934 10.7487 14.6267C10.0373 14.658 9.81133 14.6667 8 14.6667C6.18867 14.6667 5.96267 14.66 5.25133 14.6267C4.542 14.5934 4.05867 14.4814 3.63333 14.3167C3.18822 14.1497 2.78502 13.8873 2.452 13.548C2.11295 13.2148 1.85064 12.8117 1.68333 12.3667C1.518 11.942 1.40667 11.458 1.37333 10.748C1.34133 10.0374 1.33333 9.81137 1.33333 8.00004C1.33333 6.18871 1.34 5.96271 1.37333 5.25204C1.40667 4.54204 1.518 4.05871 1.68333 3.63337C1.85016 3.18816 2.11254 2.78492 2.452 2.45204C2.78511 2.11286 3.18829 1.85053 3.63333 1.68337C4.058 1.51804 4.54133 1.40671 5.25133 1.37337C5.96333 1.34204 6.18933 1.33337 8.00067 1.33337" fill="#A49898"/>
</svg>
