<svg width="16" height="16" viewBox="0 0 16 16" fill="none" xmlns="http://www.w3.org/2000/svg">
<path d="M5.66533 2.56201C5.7843 2.56201 5.90111 2.59385 6.00362 2.65422C6.10614 2.7146 6.19063 2.8013 6.24833 2.90534L7.06367 4.37401C7.11624 4.46875 7.14493 4.57487 7.14725 4.6832C7.14957 4.79152 7.12546 4.89877 7.077 4.99568L6.29167 6.56701C6.29167 6.56701 6.51933 7.73734 7.472 8.69034C8.425 9.64301 9.59133 9.86701 9.59133 9.86701L11.1623 9.08134C11.2593 9.03283 11.3666 9.00868 11.475 9.01101C11.5834 9.01333 11.6896 9.04205 11.7843 9.09468L13.2577 9.91401C13.3615 9.97182 13.4479 10.0563 13.5081 10.1588C13.5683 10.2612 13.6 10.3779 13.6 10.4967V12.1877C13.6 13.049 12.8 13.671 11.984 13.3957C10.308 12.83 7.70633 11.7533 6.05733 10.1043C4.40867 8.45534 3.33167 5.85401 2.76633 4.17768C2.491 3.36201 3.113 2.56201 3.97433 2.56201H5.66533Z" stroke="#A49898" stroke-width="1.33333" stroke-linejoin="round"/>
</svg>
