<svg width="16" height="16" viewBox="0 0 16 16" fill="none" xmlns="http://www.w3.org/2000/svg">
<g clip-path="url(#clip0_212_77)">
<path fill-rule="evenodd" clip-rule="evenodd" d="M14.56 4.03731C14.5891 3.86085 14.5703 3.67983 14.5056 3.51309C14.441 3.34636 14.3328 3.20002 14.1923 3.08932C14.0519 2.97861 13.8843 2.9076 13.7071 2.88368C13.5298 2.85976 13.3494 2.8838 13.1847 2.95331L1.78467 7.75331C0.989999 8.08797 0.949333 9.23731 1.78467 9.58397C2.61181 9.92894 3.45101 10.2442 4.30067 10.5293C5.07933 10.7866 5.92867 11.0246 6.60933 11.092C6.79533 11.3146 7.02933 11.5293 7.268 11.7253C7.63267 12.0253 8.07133 12.334 8.52467 12.63C9.43267 13.2233 10.44 13.7906 11.1187 14.16C11.93 14.6 12.9013 14.0933 13.0467 13.2086L14.56 4.03731ZM3.06267 8.66197L13.1453 4.41664L11.7333 12.9766C11.0673 12.6146 10.108 12.0726 9.25333 11.514C8.85942 11.2611 8.47912 10.9876 8.114 10.6946C8.0164 10.6149 7.92168 10.5318 7.83 10.4453L10.4707 7.80531C10.5958 7.6803 10.6661 7.51072 10.6661 7.33388C10.6662 7.15703 10.596 6.9874 10.471 6.86231C10.346 6.73721 10.1764 6.6669 9.99957 6.66684C9.82272 6.66678 9.65309 6.73697 9.528 6.86197L6.63667 9.75331C6.14733 9.69064 5.466 9.50931 4.718 9.26264C4.16113 9.07713 3.60937 8.87661 3.06333 8.66131L3.06267 8.66197Z" fill="#FFFFFF"/>
</g>
<defs>
<clipPath id="clip0_212_77">
<rect width="16" height="16" fill="white"/>
</clipPath>
</defs>
</svg>
