<svg width="50" height="50" viewBox="0 0 50 50" fill="none" xmlns="http://www.w3.org/2000/svg">
<circle cx="25" cy="25" r="24" fill="white" stroke="#74538E" stroke-width="2"/>
<g clip-path="url(#clip0_209_60)">
<path fill-rule="evenodd" clip-rule="evenodd" d="M38.12 17.0747C38.1782 16.7218 38.1407 16.3598 38.0113 16.0263C37.882 15.6928 37.6656 15.4002 37.3847 15.1788C37.1038 14.9573 36.7686 14.8153 36.4142 14.7675C36.0597 14.7196 35.6989 14.7677 35.3694 14.9067L12.5694 24.5067C10.98 25.1761 10.8987 27.4747 12.5694 28.1681C14.2237 28.858 15.9021 29.4886 17.6014 30.0587C19.1587 30.5734 20.8574 31.0494 22.2187 31.1841C22.5907 31.6294 23.0587 32.0587 23.536 32.4507C24.2654 33.0507 25.1427 33.6681 26.0494 34.2601C27.8654 35.4467 29.88 36.5814 31.2374 37.3201C32.86 38.2001 34.8027 37.1867 35.0934 35.4174L38.12 17.0747ZM15.1254 26.3241L35.2907 17.8334L32.4667 34.9534C31.1347 34.2294 29.216 33.1454 27.5067 32.0281C26.7189 31.5223 25.9583 30.9753 25.228 30.3894C25.0328 30.23 24.8434 30.0636 24.66 29.8907L29.9414 24.6107C30.1916 24.3607 30.3322 24.0216 30.3323 23.6679C30.3324 23.3142 30.192 22.9749 29.942 22.7247C29.692 22.4745 29.3529 22.3339 28.9992 22.3338C28.6455 22.3337 28.3062 22.4741 28.056 22.7241L22.2734 28.5067C21.2947 28.3814 19.932 28.0187 18.436 27.5254C17.3223 27.1544 16.2188 26.7533 15.1267 26.3227L15.1254 26.3241Z" fill="#74538E"/>
</g>
<defs>
<clipPath id="clip0_209_60">
<rect width="32" height="32" fill="white" transform="translate(9 9)"/>
</clipPath>
</defs>
</svg>
